<mxfile host="app.diagrams.net" modified="2024-04-19T11:53:08.536Z" agent="Mozilla/5.0 (Windows NT 10.0; Win64; x64) AppleWebKit/537.36 (KHTML, like Gecko) Chrome/116.0.0.0 Safari/537.36" etag="dJ5ZaHGaWZAksbZ737uI" version="24.2.5" type="device">
  <diagram name="第 1 页" id="iG9c1XytWR1VSz-UfZ_y">
    <mxGraphModel dx="2901" dy="1118" grid="1" gridSize="10" guides="1" tooltips="1" connect="1" arrows="1" fold="1" page="1" pageScale="1" pageWidth="827" pageHeight="1169" math="0" shadow="0">
      <root>
        <mxCell id="0" />
        <mxCell id="1" parent="0" />
        <mxCell id="USHf5TuAiYLh-erd369p-1" value="partition1:&amp;nbsp;&lt;span style=&quot;background-color: initial;&quot;&gt;(&quot;zhangsan&quot;, 99.0)&lt;/span&gt;&lt;div&gt;(&quot;zhangsan&quot;, 96.0)&lt;/div&gt;&lt;div&gt;(&quot;zhangsan&quot;, 96.0)&lt;/div&gt;&lt;div&gt;&lt;br&gt;&lt;/div&gt;" style="whiteSpace=wrap;html=1;aspect=fixed;" vertex="1" parent="1">
          <mxGeometry x="-560" y="320" width="180" height="180" as="geometry" />
        </mxCell>
        <mxCell id="USHf5TuAiYLh-erd369p-2" value="combineByKey(createCombiner ,mergeValue ,mergeCombiners )的逻辑：createCombiner 的逻辑 (v:V)=&amp;gt;{(v,1)}&amp;nbsp; &amp;nbsp; &amp;nbsp; &amp;nbsp; &amp;nbsp;&amp;nbsp;mergeValue逻辑 ( c:C ,v: V)=&amp;gt; {c._1 + v, c._2 + 1 }&amp;nbsp; &amp;nbsp;&amp;nbsp;mergeCombiners逻辑 (c1 C,c2: C) =&amp;gt; ( c1._1 + c2._1 , c1._2 + c2._2 )" style="whiteSpace=wrap;html=1;" vertex="1" parent="1">
          <mxGeometry x="-580" y="30" width="400" height="250" as="geometry" />
        </mxCell>
        <mxCell id="USHf5TuAiYLh-erd369p-4" value="partition2:&lt;span style=&quot;background-color: initial;&quot;&gt;(&quot;lisi&quot;, 97.0)&lt;/span&gt;&lt;div&gt;(&quot;lisi&quot;, 98.0)&lt;/div&gt;&lt;div&gt;(&quot;lisi&quot;, 98.0)&lt;/div&gt;&lt;div&gt;&lt;br&gt;&lt;/div&gt;" style="whiteSpace=wrap;html=1;aspect=fixed;" vertex="1" parent="1">
          <mxGeometry x="-560" y="560" width="180" height="180" as="geometry" />
        </mxCell>
        <mxCell id="USHf5TuAiYLh-erd369p-5" value="partition3:&lt;span style=&quot;background-color: initial;&quot;&gt;(&quot;zhangsan&quot;, 96.0)&lt;/span&gt;&lt;div&gt;(&quot;zhangsan&quot;, 97.0)&lt;/div&gt;&lt;div&gt;(&quot;zhangsan&quot;, 98.0)&lt;/div&gt;&lt;div&gt;&lt;br&gt;&lt;/div&gt;" style="whiteSpace=wrap;html=1;aspect=fixed;" vertex="1" parent="1">
          <mxGeometry x="-570" y="810" width="180" height="180" as="geometry" />
        </mxCell>
      </root>
    </mxGraphModel>
  </diagram>
</mxfile>
